<svg width="20" height="20" viewBox="0 0 20 20" fill="none" xmlns="http://www.w3.org/2000/svg">
<path d="M3.8026 18.8348C2.89201 18.8348 2.03639 18.48 1.39287 17.8366C0.0643555 16.5079 0.0643555 14.3459 1.39287 13.0174L11.9276 2.4822C12.7763 1.63259 13.9059 1.16528 15.1069 1.16528C16.308 1.16528 17.4376 1.63259 18.2864 2.4822C19.1359 3.33157 19.6038 4.46052 19.6038 5.66146C19.6038 6.86263 19.1364 7.99153 18.2871 8.8404L9.99397 17.1327C9.74498 17.3816 9.34178 17.3816 9.09291 17.1327C8.84393 16.8838 8.84393 16.4806 9.09291 16.2315L17.3858 7.93923C17.9945 7.33063 18.3293 6.52161 18.3293 5.66146C18.3293 4.80146 17.9938 3.99192 17.3853 3.38325C16.7765 2.77466 15.9675 2.43974 15.1069 2.43974C14.2463 2.43974 13.4373 2.77466 12.8286 3.38325L2.29404 13.9184C1.46268 14.7505 1.46268 16.1035 2.29404 16.9354C3.10049 17.7408 4.50455 17.7408 5.31096 16.9354L12.3848 9.86099C12.5772 9.66864 12.6874 9.40239 12.6874 9.13099C12.6874 8.85579 12.5797 8.59638 12.3843 8.40095C11.9823 7.99896 11.327 7.99774 10.925 8.40095L6.09385 13.2326C5.84502 13.4817 5.44162 13.4817 5.19279 13.2326C4.94381 12.9838 4.94381 12.5804 5.19279 12.3316L10.0238 7.49993C10.9224 6.60134 12.3855 6.60134 13.2854 7.49993C13.7217 7.9361 13.9618 8.51556 13.9618 9.13103C13.9618 9.73833 13.7154 10.3327 13.286 10.762L6.21217 17.8366C5.56865 18.48 4.71299 18.8348 3.8026 18.8348Z" fill="white"/>
</svg>
