<svg width="26" height="26" viewBox="0 0 26 26" fill="none" xmlns="http://www.w3.org/2000/svg">
<path d="M13 0.85C6.30036 0.85 0.85 6.30036 0.85 13C0.85 19.6996 6.30036 25.15 13 25.15C19.6996 25.15 25.15 19.6996 25.15 13C25.15 6.30036 19.6996 0.85 13 0.85ZM13 24.05C6.90724 24.05 1.95 19.0928 1.95 13C1.95 6.90724 6.90724 1.95 13 1.95C19.0928 1.95 24.05 6.90724 24.05 13C24.05 19.0928 19.0928 24.05 13 24.05Z" fill="#CAD4DF" stroke="#CAD4DF" stroke-width="0.3"/>
<path d="M13.0005 5.91674C12.697 5.91674 12.4505 6.1626 12.4505 6.46674V12.8501H7.93386C7.63031 12.8501 7.38386 13.0959 7.38386 13.4001C7.38386 13.7042 7.63031 13.9501 7.93386 13.9501H13.0005C13.3041 13.9501 13.5505 13.7042 13.5505 13.4001V6.46674C13.5505 6.1626 13.3041 5.91674 13.0005 5.91674Z" fill="#CAD4DF" stroke="#CAD4DF" stroke-width="0.3"/>
</svg>
