<svg width="20" height="20" viewBox="0 0 20 20" fill="none" xmlns="http://www.w3.org/2000/svg">
<path d="M16.6688 1.5625V1.6125H16.7188H17.6562C18.921 1.6125 19.95 2.64152 19.95 3.90625V17.6562C19.95 18.921 18.921 19.95 17.6562 19.95H2.34375C1.07902 19.95 0.05 18.921 0.05 17.6562V3.90625C0.05 2.64152 1.07902 1.6125 2.34375 1.6125H3.28125H3.33125V1.5625V0.05H4.79375V1.5625V1.6125H4.84375H15.1562H15.2063V1.5625V0.05H16.6688V1.5625ZM1.5625 7.29375H1.5125V7.34375V17.6562C1.5125 18.1146 1.88535 18.4875 2.34375 18.4875H17.6562C18.1146 18.4875 18.4875 18.1146 18.4875 17.6562V7.34375V7.29375H18.4375H1.5625ZM18.4375 5.83125H18.4875V5.78125V3.90625C18.4875 3.44785 18.1146 3.075 17.6562 3.075H16.7188H16.6688V3.125V4.6375H15.2063V3.125V3.075H15.1562H4.84375H4.79375V3.125V4.6375H3.33125V3.125V3.075H3.28125H2.34375C1.88535 3.075 1.5125 3.44785 1.5125 3.90625V5.78125V5.83125H1.5625H18.4375Z" fill="#CAD4DF" stroke="white" stroke-width="0.1"/>
<path d="M3.01875 10.4969V9.03438H4.48125V10.4969H3.01875Z" fill="#CAD4DF" stroke="white" stroke-width="0.1"/>
<path d="M6.14375 10.4969V9.03438H7.60625V10.4969H6.14375Z" fill="#CAD4DF" stroke="white" stroke-width="0.1"/>
<path d="M9.26875 10.4969V9.03438H10.7313V10.4969H9.26875Z" fill="#CAD4DF" stroke="white" stroke-width="0.1"/>
<path d="M12.3938 10.4969V9.03438H13.8563V10.4969H12.3938Z" fill="#CAD4DF" stroke="white" stroke-width="0.1"/>
<path d="M15.5188 10.4969V9.03438H16.9813V10.4969H15.5188Z" fill="#CAD4DF" stroke="white" stroke-width="0.1"/>
<path d="M3.01875 13.6219V12.1594H4.48125V13.6219H3.01875Z" fill="#CAD4DF" stroke="white" stroke-width="0.1"/>
<path d="M6.14375 13.6219V12.1594H7.60625V13.6219H6.14375Z" fill="#CAD4DF" stroke="white" stroke-width="0.1"/>
<path d="M9.26875 13.6219V12.1594H10.7313V13.6219H9.26875Z" fill="#CAD4DF" stroke="white" stroke-width="0.1"/>
<path d="M12.3938 13.6219V12.1594H13.8563V13.6219H12.3938Z" fill="#CAD4DF" stroke="white" stroke-width="0.1"/>
<path d="M3.01875 16.7469V15.2844H4.48125V16.7469H3.01875Z" fill="#CAD4DF" stroke="white" stroke-width="0.1"/>
<path d="M6.14375 16.7469V15.2844H7.60625V16.7469H6.14375Z" fill="#CAD4DF" stroke="white" stroke-width="0.1"/>
<path d="M9.26875 16.7469V15.2844H10.7313V16.7469H9.26875Z" fill="#CAD4DF" stroke="white" stroke-width="0.1"/>
<path d="M12.3938 16.7469V15.2844H13.8563V16.7469H12.3938Z" fill="#CAD4DF" stroke="white" stroke-width="0.1"/>
<path d="M15.5188 13.6219V12.1594H16.9813V13.6219H15.5188Z" fill="#CAD4DF" stroke="white" stroke-width="0.1"/>
</svg>
