<svg width="23" height="23" viewBox="0 0 23 23" fill="none" xmlns="http://www.w3.org/2000/svg">
<path d="M11.2902 8.83631C11.0099 8.556 10.5542 8.55456 10.2724 8.83488L7.90632 11.2024L6.9777 10.2724C6.69739 9.99206 6.2417 9.99206 5.96139 10.2724C5.68107 10.5527 5.68107 11.0084 5.96139 11.2887L7.39889 12.7262C7.53832 12.8671 7.72232 12.9375 7.90632 12.9375C8.09032 12.9375 8.27432 12.8671 8.4152 12.7276L11.2902 9.85263C11.5705 9.57231 11.5705 9.11663 11.2902 8.83631Z" fill="#CAD4DF"/>
<path d="M11.2902 14.5863C11.0099 14.306 10.5542 14.3046 10.2724 14.5849L7.90632 16.9524L6.9777 16.0238C6.69739 15.7435 6.2417 15.7435 5.96139 16.0238C5.68107 16.3041 5.68107 16.7598 5.96139 17.0401L7.39889 18.4776C7.53832 18.6171 7.72232 18.6875 7.90632 18.6875C8.09032 18.6875 8.27432 18.6171 8.4152 18.4776L11.2902 15.6026C11.5705 15.3223 11.5705 14.8666 11.2902 14.5863Z" fill="#CAD4DF"/>
<path d="M16.5312 10.0625H13.6562C13.2595 10.0625 12.9375 10.3845 12.9375 10.7812C12.9375 11.178 13.2595 11.5 13.6562 11.5H16.5312C16.928 11.5 17.25 11.178 17.25 10.7812C17.25 10.3845 16.928 10.0625 16.5312 10.0625Z" fill="#CAD4DF"/>
<path d="M16.5312 15.8125H13.6562C13.2595 15.8125 12.9375 16.1345 12.9375 16.5312C12.9375 16.928 13.2595 17.25 13.6562 17.25H16.5312C16.928 17.25 17.25 16.928 17.25 16.5312C17.25 16.1345 16.928 15.8125 16.5312 15.8125Z" fill="#CAD4DF"/>
<path d="M18.6875 2.875H15.8125V2.15625C15.8125 1.7595 15.4905 1.4375 15.0938 1.4375H13.5341C13.2365 0.600875 12.4373 0 11.5 0C10.5627 0 9.7635 0.600875 9.46594 1.4375H7.90625C7.5095 1.4375 7.1875 1.7595 7.1875 2.15625V2.875H4.3125C3.52044 2.875 2.875 3.52044 2.875 4.3125V21.5625C2.875 22.3546 3.52044 23 4.3125 23H18.6875C19.4796 23 20.125 22.3546 20.125 21.5625V4.3125C20.125 3.52044 19.4796 2.875 18.6875 2.875ZM8.625 2.875H10.0625C10.4592 2.875 10.7812 2.553 10.7812 2.15625C10.7812 1.7595 11.1032 1.4375 11.5 1.4375C11.8968 1.4375 12.2188 1.7595 12.2188 2.15625C12.2188 2.553 12.5407 2.875 12.9375 2.875H14.375V4.3125H8.625V2.875ZM18.6875 21.5625H4.3125V4.3125H7.1875V5.03125C7.1875 5.428 7.5095 5.75 7.90625 5.75H15.0938C15.4905 5.75 15.8125 5.428 15.8125 5.03125V4.3125H18.6875V21.5625Z" fill="#CAD4DF"/>
</svg>
